<svg xmlns="http://www.w3.org/2000/svg" xmlns:xlink="http://www.w3.org/1999/xlink">

<symbol id="f" fill-rule="evenodd" clip-rule="evenodd" stroke-linejoin="round" stroke-miterlimit="1.414"><path d="M15.117 0H.883C.395 0 0 .395 0 .883v14.234c0 .488.395.883.883.883h7.663V9.804H6.46V7.39h2.086V5.607c0-2.066 1.262-3.19 3.106-3.19.883 0 1.642.064 1.863.094v2.16h-1.28c-1 0-1.195.48-1.195 1.18v1.54h2.39l-.31 2.42h-2.08V16h4.077c.488 0 .883-.395.883-.883V.883C16 .395 15.605 0 15.117 0" fill-rule="nonzero"/></symbol>

<symbol id="g" fill-rule="evenodd" clip-rule="evenodd" stroke-linejoin="round" stroke-miterlimit="1.414"><path d="M8 0C3.58 0 0 3.582 0 8c0 3.535 2.292 6.533 5.47 7.59.4.075.547-.172.547-.385 0-.19-.007-.693-.01-1.36-2.226.483-2.695-1.073-2.695-1.073-.364-.924-.89-1.17-.89-1.17-.725-.496.056-.486.056-.486.803.056 1.225.824 1.225.824.714 1.223 1.873.87 2.33.665.072-.517.278-.87.507-1.07-1.777-.2-3.644-.888-3.644-3.953 0-.873.31-1.587.823-2.147-.09-.202-.36-1.015.07-2.117 0 0 .67-.215 2.2.82.64-.178 1.32-.266 2-.27.68.004 1.36.092 2 .27 1.52-1.035 2.19-.82 2.19-.82.43 1.102.16 1.915.08 2.117.51.56.82 1.274.82 2.147 0 3.073-1.87 3.75-3.65 3.947.28.24.54.73.54 1.48 0 1.07-.01 1.93-.01 2.19 0 .21.14.46.55.38C13.71 14.53 16 11.53 16 8c0-4.418-3.582-8-8-8"/></symbol>

<symbol id="l" fill-rule="evenodd" clip-rule="evenodd" stroke-linejoin="round" stroke-miterlimit="1.414"><path d="M13.632 13.635h-2.37V9.922c0-.886-.018-2.025-1.234-2.025-1.235 0-1.424.964-1.424 1.96v3.778h-2.37V6H8.51v1.04h.03c.318-.6 1.092-1.233 2.247-1.233 2.4 0 2.845 1.58 2.845 3.637v4.188zM3.558 4.955c-.762 0-1.376-.617-1.376-1.377 0-.758.614-1.375 1.376-1.375.76 0 1.376.617 1.376 1.375 0 .76-.617 1.377-1.376 1.377zm1.188 8.68H2.37V6h2.376v7.635zM14.816 0H1.18C.528 0 0 .516 0 1.153v13.694C0 15.484.528 16 1.18 16h13.635c.652 0 1.185-.516 1.185-1.153V1.153C16 .516 15.467 0 14.815 0z" fill-rule="nonzero"/></symbol>

<symbol id="r" fill-rule="evenodd" clip-rule="evenodd" stroke-linejoin="round" stroke-miterlimit="1.414"><path d="M12.8 16C12.8 8.978 7.022 3.2 0 3.2V0c8.777 0 16 7.223 16 16h-3.2zM2.194 11.61c1.21 0 2.195.985 2.195 2.196 0 1.21-.99 2.194-2.2 2.194C.98 16 0 15.017 0 13.806c0-1.21.983-2.195 2.194-2.195zM10.606 16h-3.11c0-4.113-3.383-7.497-7.496-7.497v-3.11c5.818 0 10.606 4.79 10.606 10.607z"/></symbol>

<symbol id="s" class="svg-icon" fill-rule="evenodd" clip-rule="evenodd" stroke-linejoin="round" stroke-miterlimit="1.414"><path d="M12.658 14.577v-4.27h1.423V16H1.23v-5.693h1.42v4.27h10.006zm-8.583-1.423h7.16V11.73h-7.16v1.424zm.173-3.235l6.987 1.46.3-1.38L4.55 8.54l-.302 1.38zm.906-3.37l6.47 3.02.602-1.3-6.47-3.02-.602 1.29zm1.81-3.19l5.478 4.57.906-1.08L7.87 2.28l-.9 1.078zM10.502 0L9.338.863l4.27 5.735 1.164-.862L10.5 0z"/></symbol>

<symbol id="t" fill-rule="evenodd" clip-rule="evenodd" stroke-linejoin="round" stroke-miterlimit="1.414"><path d="M16 3.038c-.59.26-1.22.437-1.885.517.677-.407 1.198-1.05 1.443-1.816-.634.37-1.337.64-2.085.79-.598-.64-1.45-1.04-2.396-1.04-1.812 0-3.282 1.47-3.282 3.28 0 .26.03.51.085.75-2.728-.13-5.147-1.44-6.766-3.42C.83 2.58.67 3.14.67 3.75c0 1.14.58 2.143 1.46 2.732-.538-.017-1.045-.165-1.487-.41v.04c0 1.59 1.13 2.918 2.633 3.22-.276.074-.566.114-.865.114-.21 0-.41-.02-.61-.058.42 1.304 1.63 2.253 3.07 2.28-1.12.88-2.54 1.404-4.07 1.404-.26 0-.52-.015-.78-.045 1.46.93 3.18 1.474 5.04 1.474 6.04 0 9.34-5 9.34-9.33 0-.14 0-.28-.01-.42.64-.46 1.2-1.04 1.64-1.7z" fill-rule="nonzero"/></symbol>

<symbol id="u" transform="scale(-1, 1) translate(-16, 0)" fill-rule="nonzero">
    <path d="M11.2388175,15.8846891 C10.779368,15.7597554 10.3398165,15.5550663 9.95522936,15.2954128 C9.79539246,15.1854842 8.95624873,14.3814067 8.09231397,13.5173089 L6.51906218,11.939001 L7.11845056,11.939001 C7.737737,11.939001 8.18234455,11.8690316 8.73166157,11.6842406 L9.05133537,11.579368 L10.0852192,12.6081957 C11.3339042,13.8467686 11.4387768,13.911682 12.1878899,13.911682 C12.6124363,13.911682 12.6923547,13.8966769 12.9520082,13.7668502 C13.29158,13.5920082 13.5763507,13.3023445 13.7710907,12.9277064 C13.8908053,12.6930071 13.9059735,12.6080326 13.9108665,12.1885423 C13.9108665,11.4043629 13.9209786,11.419368 11.868053,9.35160041 C10.9041386,8.38262997 10.0051376,7.51363914 9.86519878,7.4187156 C9.18589195,6.94931702 8.24203874,7.02923547 7.65765545,7.60350663 C7.47286442,7.78324159 7.41300714,7.81325178 7.17814475,7.83314985 C6.82356779,7.86316004 6.71869521,7.80313965 6.14931702,7.2288685 L5.67991845,6.75441386 L5.86470948,6.49965341 C6.54890928,5.5706422 7.89251784,4.97630989 9.11119266,5.0611213 C9.86536188,5.11608563 10.5247706,5.34589195 11.1040979,5.76538226 C11.483629,6.04004077 15.1096432,9.67616718 15.3295005,10.00579 C15.5743119,10.365423 15.7741081,10.8199796 15.8887666,11.2893782 C16.0437105,11.8936595 16.0086442,12.7827115 15.8088481,13.3770438 C15.4143119,14.5507034 14.5502141,15.4097452 13.3615494,15.8143935 C12.8071764,16.0045668 11.8033028,16.034577 11.2388175,15.8846891 Z"></path>
    <path d="M6.45920489,10.8852192 C6.06466871,10.8203058 5.51518858,10.6154536 5.1206524,10.3807543 C4.84093782,10.2158614 4.39143731,9.79637105 2.83319062,8.24807339 C1.76424057,7.18923547 0.800326198,6.19041794 0.690560652,6.02552497 C0.40579001,5.61598369 0.176146789,5.0916208 0.0761671764,4.62711519 C-0.0536595311,4.04778797 -0.00880733945,3.16362895 0.171090724,2.62426096 C0.575575943,1.43559633 1.43478084,0.571498471 2.60844037,0.176962283 C3.20277268,-0.022833843 4.09182467,-0.0577370031 4.69610601,0.0970438328 C5.21051988,0.22687054 5.66002039,0.431559633 6.06466871,0.72138634 C6.23445464,0.846320082 7.06364934,1.64028542 7.91763507,2.49443425 L9.46593272,4.04762487 L8.86654434,4.04762487 C8.2472579,4.04762487 7.80281346,4.11759429 7.25333333,4.30238532 L6.93365953,4.4072579 L5.9048318,3.3883792 C4.64619776,2.14475025 4.53626911,2.07478084 3.79710499,2.07478084 C3.40762487,2.0798369 3.28269113,2.09973496 3.08289501,2.19465851 C2.73321101,2.36444444 2.38858308,2.69912334 2.22385321,3.03380224 C2.08897044,3.29345566 2.07396534,3.37337411 2.07396534,3.79792049 C2.07396534,4.59710499 2.05896024,4.57198777 4.11172273,6.63486239 C5.08069317,7.60383282 5.98475025,8.47282365 6.11946993,8.5677472 C6.79877676,9.03730887 7.74279307,8.95739042 8.32717635,8.38295617 C8.51196738,8.2032212 8.57182467,8.17321101 8.80668705,8.15331295 C9.16126402,8.12330275 9.2661366,8.18332314 9.83551478,8.76265036 L10.3050765,9.23710499 L10.1003874,9.51176351 C9.71074414,10.0261774 8.95168196,10.5405912 8.26731906,10.7553925 C7.69777778,10.9351274 7.03853211,10.9801427 6.45920489,10.8852192 Z"></path>
</symbol>

</svg>
